<?xml version="1.0" standalone="no"?>
<!DOCTYPE svg PUBLIC "-//W3C//DTD SVG 20010904//EN"
 "http://www.w3.org/TR/2001/REC-SVG-20010904/DTD/svg10.dtd">
<svg version="1.0" xmlns="http://www.w3.org/2000/svg"
 width="700.000000pt" height="700.000000pt" viewBox="0 0 700.000000 700.000000"
 preserveAspectRatio="xMidYMid meet">
<metadata>
Created by potrace 1.14, written by Peter Selinger 2001-2017
</metadata>
<g transform="translate(0.000000,700.000000) scale(0.100000,-0.100000)"
fill="#000000" stroke="none">
<path d="M3215 6990 c-848 -76 -1598 -424 -2190 -1015 -538 -537 -880 -1219
-989 -1975 -215 -1488 543 -2947 1883 -3624 698 -353 1507 -461 2282 -305 720
145 1389 522 1881 1063 896 984 1159 2373 686 3624 -61 161 -206 454 -298 600
-152 243 -395 535 -597 718 -546 497 -1191 797 -1923 895 -167 23 -575 33
-735 19z m-500 -2287 c427 -390 780 -709 785 -711 4 -2 358 317 785 708 l777
710 229 0 229 0 0 -1925 0 -1925 -505 0 -505 0 0 986 c0 594 -4 984 -9 982 -5
-1 -213 -190 -462 -418 -249 -228 -471 -432 -495 -453 l-42 -37 -504 456 -503
456 -3 -986 -2 -986 -505 0 -505 0 0 1925 0 1925 229 0 229 0 777 -707z"/>
</g>
</svg>
